<svg height="241" viewBox="0 0 1489 241" width="1489" xmlns="http://www.w3.org/2000/svg" xmlns:xlink="http://www.w3.org/1999/xlink"><linearGradient id="a"><stop offset="0" stop-color="#dedc00" stop-opacity=".6"/><stop offset="1" stop-color="#063"/></linearGradient><linearGradient id="b" x1="50%" x2="50%" xlink:href="#a" y1="109.004%" y2="-67.7733%"/><linearGradient id="c" x1="50%" x2="50%" xlink:href="#a" y1="135.9591%" y2="-84.5327%"/><linearGradient id="d" x1="50.0052%" x2="50.0052%" xlink:href="#a" y1="116.1408%" y2="-72.2106%"/><linearGradient id="e" x1="50.0074%" x2="50.0074%" xlink:href="#a" y1="153.9166%" y2="-95.6978%"/><linearGradient id="f" x1="50%" x2="50%" xlink:href="#a" y1="171.8515%" y2="-106.8488%"/><linearGradient id="g" x1="49.9954%" x2="49.9954%" xlink:href="#a" y1="112.35%" y2="-66.4106%"/><linearGradient id="h" x1="49.9913%" x2="49.9913%" xlink:href="#a" y1="104.483%" y2="-64.9624%"/><linearGradient id="i" x1="49.9954%" x2="49.9954%" xlink:href="#a" y1="103.3166%" y2="-64.2372%"/><linearGradient id="j" x1="50.0299%" x2="50.0299%" xlink:href="#a" y1="134.329%" y2="-83.5191%"/><linearGradient id="k" x1="50%" x2="50%" xlink:href="#a" y1="107.9172%" y2="-67.0976%"/><linearGradient id="l" x1="49.987%" x2="49.987%" xlink:href="#a" y1="100.5511%" y2="-62.5177%"/><linearGradient id="m" x1="49.9858%" x2="49.9858%" xlink:href="#a" y1="100.8608%" y2="-62.7103%"/><linearGradient id="n" x1="50.0238%" x2="50.0238%" xlink:href="#a" y1="99.9993%" y2="-62.1747%"/><g fill="none" fill-rule="evenodd"><path d="m355.15 148.44-36.18-134.4h-45.65v224.35h33.32v-162.4l43.68 162.4h38.15v-224.35h-33.32zm50.42 89.95h96.05v-32.06h-60.85v-65.72h48.35v-32.07h-48.35v-62.43h60.85v-32.07h-96.05zm278.25-224.35h-32.41l-18.32 178.28-17.63-178.28h-33.89l-16.86 176.85-18.91-176.85h-35.21l24.8 224.35h49.47l12.8-119.53 12.81 119.53h49.49l23.86-216.13v23.85h36.93v192.28h35.21v-192.28h36.91v-32.07h-108.14zm225.18 197.19v-34.53c0-25.26-7.79-41.18-23.37-47.76 15.3333-7.3 23-22.4867 23-45.56v-17.68c0-17.5267-4.16-30.5267-12.48-39s-21.53-12.7067-39.63-12.7h-53.13v224.39h35.21v-91.21h12.2c8.1533 0 14.0167 2.21 17.59 6.63s5.38 11.7333 5.42 21.94v35.15c.0867 12 1.1733 21.1633 3.26 27.49h35.69c-2.5067-5.7267-3.76-14.3167-3.76-25.77zm-35.5-119.88c0 8.5267-1.75 14.62-5.25 18.28s-8.79 5.4867-15.87 5.48h-13.78v-69h17c12 0 17.95 7.7167 17.85 23.15zm53.86-77.31h35.21v224.35h-35.21zm45.73 32.07h36.92v192.28h35.19v-192.28h36.94v-32.07h-109.05zm119.58-32.07h35.18v224.35h-35.18zm106.58-2.5c-17.2867 0-30.53 4.9-39.73 14.7s-13.79 23.6767-13.77 41.63v116.71c0 17.9333 4.59 31.8033 13.77 41.61s22.4233 14.71 39.73 14.71c17.3 0 30.5433-4.9033 39.73-14.71s13.78-23.6767 13.78-41.61v-116.71c0-17.96-4.5933-31.8367-13.78-41.63s-22.43-14.6933-39.73-14.7zm18.3 175.1c.1133 14.7933-5.9633 22.1867-18.23 22.18-12.12-.09-18.28-7.49-18.38-22.18v-121c0-14.6667 6.1033-22 18.31-22s18.3067 7.3333 18.3 22zm134.75-172.6v134.4l-36.18-134.4h-45.64v224.35h33.32v-162.4l43.66 162.4h38.16v-224.35z" fill="#76b82a" fill-rule="nonzero"/><path d="m440.77 140.61h48.35v-16.61c-32.06-3.94-59.74-8.28-83.55-12.7v127.09h96.05v-32.06h-60.85zm486.59.02v97.76h35.21v-98.77c-11.4467.38-23.1833.7167-35.21 1.01zm-18.36 36.07c0-15.26-2.85-27.1033-8.55-35.53-21.7933.36-44.5033.5433-68.13.55-9.8133 0-19.46-.0333-28.94-.1v96.77h35.22v-91.21h12.2c8.1533 0 14.0167 2.21 17.59 6.63s5.38 11.7333 5.42 21.94v35.15c.0867 12 1.1733 21.1633 3.26 27.49h35.69c-2.5067-5.7267-3.76-14.3167-3.76-25.77zm-553.85-76.17v47.91l-13.86-51.44c-12.45-3.34-22.89-6.55-31.56-9.49l40.59 150.91h38.15v-130.42c-12.25-2.52-23.33-5-33.32-7.47zm365.6 39.67v98.19h35.25v-97.39c-12.0333-.2067-23.7833-.4733-35.25-.8zm-87.66 52.12-5.55-56.12c-9.6467-.56-19.05-1.16-28.21-1.8l11.14 104h49.53l11-100c-11.02-.48-21.7533-1.0033-32.2-1.57zm376.91-54.66v100.73h35.19v-102.67c-11.36.7-23.09 1.3467-35.19 1.94zm-141.75-28.03c3.4933-3.6467 5.2433-9.74 5.25-18.28v-22.09c.0867-15.42-5.8633-23.1367-17.85-23.15h-17v69h13.78c7.0467 0 12.32-1.8267 15.82-5.48zm484.05-21.27v60.08l-14.92-55.44c-8 2.35-16.93 4.8-27 7.3l37.12 138.07h38.16v-163.25c-5.84 2.88-16.43 7.62-33.36 13.24zm-81.82 150.03h33.32v-136.49c-10 2.39-21.13 4.81-33.32 7.22zm-52.93-120.12v68.37c.1133 14.7933-5.9633 22.1867-18.23 22.18-12.12-.09-18.28-7.49-18.38-22.18v-63.31c-11.1733 1.4133-22.9033 2.7733-35.19 4.08v57.17c0 17.9333 4.59 31.8033 13.77 41.61s22.4233 14.71 39.73 14.71c17.3 0 30.5433-4.9033 39.73-14.71s13.78-23.6767 13.78-41.61v-72.12c-10.94 1.9733-22.6767 3.91-35.21 5.81zm-944.23 120.12h33.32v-152c-24.21-8.39-33.32-14.39-33.32-14.39z"/><path d="m1199.25 43.61c-12.2 0-18.3033 7.3333-18.31 22v121c.1 14.69 6.26 22.09 18.38 22.18 12.2667 0 18.3433-7.3933 18.23-22.18v-121c0-14.66-6.1-21.9933-18.3-22zm-106.58 88.74v106h35.18v-109.12c-11.2667 1.0933-22.9933 2.1333-35.18 3.12zm-527.96 58.54-6.38-59.68c-12.2-1.06-23.92-2.1767-35.16-3.35l12.22 110.53h49.47l11.14-104.22c-8.7867-.62-17.3567-1.2867-25.71-2z"/><g fill-rule="nonzero"><path d="m545.8 14h-35.21l12.58 113.82c11.2533 1.1667 22.9733 2.2833 35.16 3.35z" fill="url(#b)" opacity=".5"/><path d="m388.47 14h-33.32v86.49c10 2.45 21.07 5 33.32 7.45z" fill="url(#c)" opacity=".5"/><path d="m489.12 108.54h-48.35v-62.43h60.85v-32.11h-96.05v97.27c23.81 4.42 51.49 8.76 83.55 12.7z" fill="url(#d)" opacity=".5"/><path d="m319 14h-45.68v58s9.11 6 33.32 14.42v-10.42l3.09 11.49c8.67 2.94 19.11 6.15 31.56 9.49z" fill="url(#e)" opacity=".5"/><path d="m1385.62 14h-33.32v74.32c16.93-5.62 27.52-10.34 33.32-13.24z" fill="url(#f)" opacity=".5"/><path d="m1180.94 65.64c0-14.6667 6.1033-22 18.31-22s18.3067 7.3333 18.3 22v52.63c12.5533-1.8867 24.29-3.8233 35.21-5.81v-44.59c0-17.96-4.5933-31.8367-13.78-41.63s-22.43-14.6933-39.73-14.7c-17.2867 0-30.53 4.9-39.73 14.7s-13.79 23.6767-13.77 41.63v59.54c12.2867-1.3 24.0167-2.66 35.19-4.08z" fill="url(#g)" opacity=".5"/><path d="m615.46 14h-33.89l-11.26 118.21a6594.6889 6594.6889 0 0 0 25.71 2l1.64-15.31 1.67 15.54c9.16.6267 18.5633 1.2267 28.21 1.8z" fill="url(#h)" opacity=".5"/><path d="m1045.2 46.11h36.94v-32.11h-109.05v32.07h36.91v91.55c12.0867-.6 23.8167-1.2467 35.19-1.94z" fill="url(#i)" opacity=".5"/><path d="m1316.12 14h-45.64v95.08c12.19-2.41 23.27-4.83 33.32-7.22v-25.86l6.54 24.33c10.11-2.5 19.08-4.95 27-7.3z" fill="url(#j)" opacity=".5"/><path d="m1127.85 14h-35.18v118.35c12.1867-.98 23.9133-2.02 35.18-3.12z" fill="url(#k)" opacity=".5"/><path d="m756 46.11h36.91v-32.11h-141.5l-12.62 122.8c10.46.5733 21.1933 1.0967 32.2 1.57l12.83-116.23v23.93h36.93v94.13c11.46.32 23.1967.5933 35.21.82z" fill="url(#l)" opacity=".5"/><path d="m962.57 14h-35.21v126.63c12-.2933 23.7367-.6267 35.21-1z" fill="url(#m)" opacity=".5"/><path d="m900.46 141.17a33 33 0 0 0 -14.82-12.23c15.3333-7.3 23-22.4867 23-45.56v-17.68c0-17.5267-4.16-30.5267-12.48-39s-21.5333-12.7067-39.64-12.7h-53.13v127.62c9.4933.0733 19.14.1067 28.94.1 23.6533 0 46.3633-.1833 68.13-.55zm-61.86-95.06h17c12 0 17.95 7.7167 17.85 23.15v22.09c0 8.5267-1.75 14.62-5.25 18.28s-8.79 5.4867-15.87 5.48h-13.73z" fill="url(#n)" opacity=".5"/><path d="m1467 199h-11.2v12.49h12.05c5.48-.04 8.2233 2.2333 8.23 6.82s-2.7333 6.8833-8.22 6.89h-45.4c-5.52 0-8.2833-2.2867-8.29-6.86 0-4.57 2.77-6.85 8.27-6.85h9v-12.49h-8.22c-6.8 0-12.0167 1.6833-15.65 5.05s-5.4467 8.2467-5.44 14.64c0 6.4133 1.8133 11.3 5.44 14.66s8.8433 5.0267 15.65 5h43.78c6.7867 0 12-1.6667 15.64-5s5.46-8.22 5.46-14.66c0-6.4-1.82-11.28-5.46-14.64s-8.8533-5.0433-15.64-5.05zm0-45.25h-43.74c-6.7133 0-11.9067 1.72-15.58 5.16-3.68 3.45-5.51 8.4-5.51 14.89s1.83 11.43 5.51 14.88 8.87 5.17 15.58 5.17h43.74c6.7133 0 11.9067-1.7233 15.58-5.17s5.5133-8.4067 5.52-14.88c0-6.49-1.85-11.44-5.52-14.89s-8.84-5.16-15.58-5.16zm.76 26.9h-45.32c-5.5133 0-8.27-2.2833-8.27-6.85s2.7567-6.8533 8.27-6.86h45.32c5.54-.04 8.3133 2.2333 8.32 6.82-.02 4.56-2.78 6.85-8.29 6.89zm19.42-63.43v-13.22l-84 13.37v19.67l84 13.37v-12.41l-14.66-2.2v-16.37zm-26.66 16.78-42.31-6.34 42.31-6.38zm-37.23-32.92h43.71c6.7867 0 12-1.6667 15.64-5s5.46-8.2167 5.46-14.65c0-6.4067-1.82-11.29-5.46-14.65s-8.8533-5.0267-15.64-5h-11.2v12.48h12.05c5.48-.04 8.2233 2.2367 8.23 6.83s-2.7333 6.89-8.22 6.89h-45.4c-5.52 0-8.2833-2.29-8.29-6.87 0-4.57 2.77-6.85 8.27-6.85h9v-12.56h-8.22c-6.8 0-12.0167 1.6667-15.65 5s-5.4467 8.2167-5.44 14.65c0 6.4 1.8133 11.2833 5.44 14.65s8.8667 5.06 15.72 5.08zm63.89-58.8h-35.98v-15h35.98v-13.19h-84.04v13.19h36.05v15h-36.05v13.18h84.04z" fill="#212121"/><path d="m174.83 144c-6.29-10.47-15-20.1-22.11-30.07-10.05-14.16-21-25.12-27.8-41.83-6.82 16.71-18.8 27.67-28.82 41.83-7.08 10-15.7 19.9-22 30.38-6.72 11.21-6.59 23.63-2.88 36.44 6.57 22.77 27 46.63 46.95 56.38 2.08 1 4.17 2 6.23 2.89a250.8721 250.8721 0 0 0 5.63-2.65c20.5-10 40.91-33.58 47.57-56.62 3.7-12.84 3.97-25.56-2.77-36.75z" fill="#575756"/><path d="m131.05 119.89c.11 2.87.18 6.08.18 9.48 0 12.17-.83 22-1.87 22s-1.86-9.87-1.86-22c0-3.4-.35-6.61-.31-9.48h-.57c0 2.87-.31 6.08-.31 9.48 0 12.17-.84 22-1.87 22s-1.86-9.87-1.86-22c0-3.4-.35-6.61-.3-9.48h-.61c0 2.87-.29 6.08-.29 9.48 0 12.17-.84 22-1.87 22s-1.86-9.87-1.86-22c0-3.4.07-6.61.19-9.48h-.56s-5.7 34.18 0 39.88c7.16 7.16 2.63 4.14 2.63 4.14s5.19 10.16.53 48.19a150.23 150.23 0 0 0 -1.35 21.59c1.78.86 3.56 1.7 5.31 2.46 1.79-.8 3.59-1.64 5.38-2.52a149.26 149.26 0 0 0 -1.35-21.53c-4.66-38 .52-48.19.52-48.19s-4.46 3 2.63-4.14c5.7-5.7 0-39.88 0-39.88z" fill="#fff"/><path d="m31.11 6.84c-22 10.2-35.93 31.41-27.88 62.05 10.35 35.12 32.56 67.56 55.17 93.62-1.7-19.17 15.93-37.38 24.48-48.45 10.13-13.14 20.29-26.31 29.62-39.94 7.28-10.65 8.62-22.53 4.66-34.77-10.59-32.72-52.06-48.28-86.06-32.5" fill="#76b82a"/><path d="m218.74 6.84c-34-15.78-75.47-.22-86.06 32.5-4 12.24-2.62 24.12 4.66 34.77 9.32 13.63 19.48 26.8 29.62 39.94 8.54 11.07 26.16 29.28 24.48 48.45 22.62-26.06 44.83-58.5 55.18-93.62 8-30.64-5.91-51.85-27.88-62.05" fill="#9ac33a"/></g><path d="m226.37 13.61c-19.12-2-29.62 5.09-35.26 15.49-2.14 3.91-3 11-2.14 14s3.72 6.59 4.26 8.94-.66 6.08-.66 6.08-2.32 4.74-9.74 10.48c-9.92 7.65-5.23 9.68-4.7 10.3s5.85 2.2 5.85 2.2 5.33-.15 2.45 5-4 3-1.45 6.56c1.73 2.48 4.84 2.79 7 2.67 1.27-.2 2.24-.31 2.24-.31a12.59 12.59 0 0 1 -2.24.31c-2.64.43-6.66 1.34-6.42 2.82a5.45 5.45 0 0 0 1.44 3.12s2.71.95 2.17 3.61-3.25 5.31-1.26 7.5 2.44 5.44 17.83 1.88a89.36 89.36 0 0 0 21.4-7.45 199 199 0 0 0 15.86-37.92c6.55-24.99-1.51-43.7-16.63-55.28z" fill="#fff"/><path d="m42.61 49.49c-12.5716-.004-23.9076 7.5658-28.7213 19.1793-4.8137 11.6134-2.1571 24.9831 6.7309 33.874 8.888 8.891 22.2569 11.5518 33.8719 6.7418s19.1885-16.1435 19.1885-28.7151a31.07 31.07 0 0 0 -31.07-31.08zm-8.26 47.65s3-13.65 3-16.57a5.31 5.31 0 1 1 10.61 0c-.05 2.92-13.61 16.57-13.61 16.57z"/><path d="m73.59 40.09-4.06-2.8-3.86 5.56 4.08 2.81zm-36.29-3.66h10.61v-4.26h3.27v-10.28h-17.14v10.28h3.26zm5.31 2.45c-18.0672.0242-34.0615 11.6859-39.61 28.88.09.37.18.75.28 1.13 5.14 17.45 13.22 34.24 22.82 49.92 15.544 6.7287 33.614 3.3817 45.7168-8.4679s15.831-29.8449 9.4325-45.5276c-6.3986-15.6827-21.6515-25.9335-38.5893-25.9345zm0 72.76c-12.5725.004-23.9091-7.5669-28.7223-19.1816-4.8131-11.6147-2.1547-24.9852 6.7354-33.8753 8.8901-8.89 22.2606-11.5485 33.8753-6.7354 11.6147 4.8133 19.1856 16.1498 19.1816 28.7223 0 17.1595-13.9105 31.07-31.07 31.07z" fill="#575756" fill-rule="nonzero"/><path d="m42.61 75.26c-2.9326 0-5.31 2.3774-5.31 5.31 0 2.92-3 16.57-3 16.57s13.56-13.65 13.56-16.57c.0056-2.9116-2.3385-5.2825-5.25-5.31z" fill="#575756" fill-rule="nonzero"/></g></svg>