<?xml version="1.0" encoding="UTF-8" standalone="no"?>
<!-- Created with Inkscape (http://www.inkscape.org/) -->

<svg
   version="1.1"
   id="svg1"
   width="408"
   height="445"
   viewBox="0 0 408 445"
   sodipodi:docname="yogiSVG1.svg"
   inkscape:export-filename="svg\yogiSVG1.png"
   inkscape:export-xdpi="96"
   inkscape:export-ydpi="96"
   xmlns:inkscape="http://www.inkscape.org/namespaces/inkscape"
   xmlns:sodipodi="http://sodipodi.sourceforge.net/DTD/sodipodi-0.dtd"
   xmlns="http://www.w3.org/2000/svg"
   xmlns:svg="http://www.w3.org/2000/svg">
  <defs
     id="defs1" />
  <sodipodi:namedview
     id="namedview1"
     pagecolor="#ffffff"
     bordercolor="#000000"
     borderopacity="0.25"
     inkscape:showpageshadow="2"
     inkscape:pageopacity="0.0"
     inkscape:pagecheckerboard="0"
     inkscape:deskcolor="#d1d1d1"
     showgrid="false"
     inkscape:zoom="1.8314607"
     inkscape:cx="203.93558"
     inkscape:cy="222.5"
     inkscape:window-width="1920"
     inkscape:window-height="1017"
     inkscape:window-x="-8"
     inkscape:window-y="-8"
     inkscape:window-maximized="1"
     inkscape:current-layer="g1">
    <inkscape:page
       x="0"
       y="0"
       width="408"
       height="445"
       id="page2"
       margin="0"
       bleed="0" />
  </sodipodi:namedview>
  <g
     inkscape:groupmode="layer"
     inkscape:label="Image"
     id="g1">
    <path
       style="fill:#7b6f5d;stroke:none"
       d="m 119,268 v -1 c 10.01208,-1.50049 21.31393,-3.1618 29.98047,-8.72528 16.0423,-10.29829 17.96495,-32.06638 16.24937,-49.27472 -1.07556,-10.78859 -3.06584,-21.42383 -5.45298,-31.99933 -0.55835,-2.47357 -1.32293,-9.66745 -4.94545,-9.66745 -5.16855,0 -3.9561,12.48779 -4.27807,15.66678 -1.71177,16.90182 -2.31268,34.39168 -14.02899,47.9324 C 125.68858,243.45547 109.05828,252.34248 95,260.76871 88.182838,264.85477 80.239082,269.26312 72,268.70877 62.631874,268.07849 57.913445,257.58197 49,258 c 5.463982,13.59854 17.656387,16.88315 31,16 -16.207226,17.2016 -12.727158,42.92828 13,48.12405 11.57445,2.33753 24.4837,0.94199 36,-1.06124 36.02667,-6.26676 83.45157,-25.60163 99.46657,-61.06281 6.39836,-14.16757 3.39635,-29.9612 3.54239,-45 0.0917,-9.44479 2.54474,-18.59534 2.99104,-28 h 1 c 0.34169,38.77397 22.95929,62.01459 57,78 v 1 c -13.85202,-3.90186 -28.08102,-6.20764 -42,-9.88428 -4.9435,-1.30578 -11.48763,-5.34524 -14,0.88428 12.377,6.33508 26.63715,7.74365 40,10.89133 7.42523,1.74905 15.13943,3.51431 22,6.9451 19.24475,9.62378 23.48816,33.52258 0,41.38568 -17.91412,5.99707 -42.73309,-0.83826 -60,-6.55609 -5.92216,-1.96109 -19.4402,-10.39747 -23,-2.66602 22.84329,11.32471 58.47101,21.83466 84,14.93558 21.33136,-5.76468 30.38321,-33.7786 10,-46.93558 9.55133,-0.87244 17.32584,0.0245 24.89401,-7.23145 1.41455,-1.3562 6.26291,-6.0996 3.80832,-8.3424 -2.06558,-1.88739 -5.70764,2.17444 -7.0469,3.31958 -5.53321,4.73111 -11.33762,7.08703 -18.65543,5.58822 -18.73834,-3.83798 -44.77426,-22.68997 -57.58061,-36.5137 -12.3711,-13.35388 -13.8821,-33.47214 -14.38391,-50.82025 -0.074,-2.55731 0.65248,-15.1413 -4.66677,-13.57336 -3.22522,0.95068 -3.77739,6.90176 -4.34872,9.57403 -1.97398,9.23294 -3.72987,18.61667 -4.8042,27.99933 -1.62671,14.20695 1.85927,29.0825 -0.81943,43 -3.08391,16.02286 -16.82058,29.57129 -29.39636,38.79504 -25.02309,18.35328 -66.2596,35.35041 -98,30.78699 -27.535172,-3.95877 -30.946541,-33.05737 -5,-43.08548 17.18309,-6.64111 39.25815,0.54535 56,5.82199 7.18675,2.26508 18.3998,8.22977 25.94963,5.99185 6.80684,-2.01767 8.86662,-10.23904 6.69081,-16.31039 -3.71029,-10.35309 -15.63951,-18.2639 -6.73518,-29.82816 10.75633,-13.96949 34.77894,3.60825 40.26863,-19.17233 3.42915,-14.22998 -8.14076,-18.30209 -15.17024,-28.04027 -5.46563,-7.5717 -6.9489,-17.87077 -7.75092,-26.95924 -1.4411,-16.33057 0.45638,-33.31244 8.05975,-48 8.25515,-15.94659 20.71077,-27.39386 22.99128,-46 C 226.29086,55.787689 221.65819,33.666382 203,29.668793 184.44884,25.694122 169.66844,38.988678 167.38359,57 c -1.3065,10.299072 -0.29301,21.612091 4.32527,31 3.37361,6.857788 11.93318,14.70728 8.8259,22.99457 -5.95085,15.87127 -31.61195,10.59201 -41.37167,25.01599 -10.56824,15.61893 -9.7473,39.91046 -12.66035,57.98944 -3.0497,18.92706 -16.3277,41.31285 -32.50419,52.05791 -9.892898,6.57124 -18.456939,-4.01308 -27.817741,0.0755 -6.180878,2.69968 -6.915867,13.73944 -1.624321,17.71234 2.967079,2.22773 13.603561,0.34324 10.532318,-4.76718 -1.550735,-2.58035 -5.693306,0.75424 -7.455734,-1.93326 -1.001999,-1.52792 -0.428185,-3.69531 1.085235,-4.64978 3.54712,-2.23706 9.597481,1.42261 13.281693,2.02527 7.233826,1.18331 13.489166,-1.21594 18.93336,-5.95936 13.40848,-11.68254 26.43655,-29.95044 30.02919,-47.56145 3.78632,-18.56036 1.70031,-44.77753 12.47858,-60.95874 10.12357,-15.1983 36.46431,-8.15418 42.50907,-26.04288 C 187.69522,108.8342 187.05188,102.84521 184.6955,98 181.51576,91.461823 176.54086,86.063477 174.3548,79 169.14937,62.180542 176.11343,29.491852 200,34.845154 217.05408,38.667206 220.67725,58.323242 218.4782,73 c -2.3711,15.824951 -13.95562,26.5354 -21.35642,40 -7.2865,13.25665 -10.11415,28.98853 -10.11415,44 0,12.69745 1.53299,28.07379 8.60992,38.95911 4.48009,6.891 15.69413,10.75267 15.59113,20.04223 -0.22112,19.9421 -28.62807,8.04328 -38.4955,18.50263 -6.70653,7.10882 -7.17914,18.26533 -2.43835,26.49603 2.63984,4.58316 8.972,10.88498 6.52174,16.71216 -2.44106,5.80527 -10.74084,1.63754 -14.79657,0.28778 -13.8018,-4.5932 -28.33925,-9.56619 -43,-9.99994 m 205,-8 -5,-3 c -10.0426,3.87909 10.20776,15.8067 10.63354,-1.00285 0.0506,-1.99861 -0.32989,-4.0533 -1.3041,-5.81586 C 322.56921,239.7599 310.37027,251.18108 302,248.61566 291.1384,245.28668 282.99979,231.90282 277.01434,223 c -10.77176,-16.02202 -12.6264,-32.28677 -14.95355,-51 -1.46371,-11.77011 -2.41672,-25.88373 -9.22627,-35.98944 -8.39819,-12.46335 -20.9875,-10.15643 -32.79376,-16.14255 -1.63131,-0.82712 -11.55809,-10.30298 -11.74454,-4.42697 -0.38208,12.04163 23.36511,12.32184 30.6943,16.10052 11.31928,5.83585 13.61702,18.04529 15.80097,29.45844 3.68571,19.26123 2.27516,40.6088 12.46669,58 6.76834,11.54974 16.52948,27.40692 28.74328,33.71797 C 305.52341,257.63809 323.55145,246.21146 324,260 M 156,188 c 5.38113,18.14709 9.31126,49.60803 -7.1344,63.39597 C 136.84914,261.47049 113.12268,263.72598 98,266 v -1 c 18.77415,-9.74498 42.38229,-23.84334 51.04602,-44 4.63835,-10.79138 3.79027,-22.08255 6.95398,-33 m 35.02348,54.94366 c -16.88917,5.77823 -8.6755,33.84327 8.96595,28.18811 17.62034,-5.64843 9.48857,-34.50187 -8.96595,-28.18811 M 97,349 c 10.32415,12.8403 34.07407,-9.75702 47,-10 L 129.99846,359.99103 120,373 c 14.38756,-2.15826 14.82996,-15.95703 23.36292,-24.73315 C 149.64391,341.80688 160.60799,339.52863 169,337 L 158.89001,362.86954 143,381 l 21,-15 6,24 h 2 c 2.63092,-11.97345 -4.68329,-22.25647 -4.61551,-34 0.0565,-9.78207 7.53552,-18.12808 14.61551,-24 -3.67355,18.7243 8.3614,32.19022 10.44627,50 1.28391,10.96762 -5.51623,20.44867 -7.02819,31 -0.9809,6.84528 -1.28684,17.32324 5.58192,21 -2.73062,-18.25412 5.10121,-30.36792 6.60109,-48 0.7478,-8.79089 -2.51985,-17.58649 -4.60109,-26 11.42828,9.27405 16.75378,14.83585 21,29 h 2 C 220.74249,367.41034 199.09857,363.32104 190.39281,347.99091 185.02299,338.5351 188.95599,330.40469 192,321 h 1 c 2.60971,19.24542 19.71539,23.3299 31.78174,35.29016 7.31332,7.24909 9.4987,16.78198 10.21826,26.70984 5.64287,-2.23572 4.10646,-9.0766 2.82845,-14 C 234.02151,354.33435 224.01112,348.93359 213,340 c 8.05164,1.65067 17.81998,0.82916 24.97949,5.27692 9.456,5.87439 12.78122,19.76452 26.02051,17.72308 v -2 c -9.72125,-5.09793 -13.66713,-12.44284 -20,-21 11.12321,2.62704 39.18893,22.11603 47,6 -6.15628,0.0452 -11.8945,1.552 -18,-0.15762 -8.77652,-2.45755 -15.92499,-8.65802 -25,-10.26276 -11.17506,-1.97607 -22.04134,2.17526 -33,-2.18759 -7.55313,-3.00705 -17.56204,-11.18372 -14.91129,-20.39057 5.31011,-18.44354 40.63247,-31.20184 57.91129,-31.75912 5.72134,-0.18454 10.36395,2.673 15.8291,3.20706 2.64194,0.25818 4.09128,-1.61578 2.25733,-3.84588 -10.68271,-12.99024 -40.60695,-0.76935 -52.08643,4.68957 -10.60548,5.04334 -19.81364,10.99133 -27.80873,19.71076 -6.88907,7.51318 -11.44608,16.60522 -20.19275,22.31051 -13.1562,8.58154 -26.70796,4.47568 -40.99852,7.45807 -8.8325,1.84329 -15.02725,8.00589 -23,11.64475 -4.81853,2.19924 -9.9222,1.63574 -15,2.58282 m 73,-13 -1,1 z"
       id="path22" />
    <path
       style="fill:#e88d50;fill-opacity:1;stroke-width:0.546012"
       d="m 191.47766,270.85004 c -5.38154,-1.9193 -9.27597,-7.99408 -9.26283,-14.44874 0.004,-1.97869 0.37799,-4.47546 0.83101,-5.54837 2.60863,-6.17808 10.04435,-9.78396 16.37848,-7.94258 10.14816,2.95015 13.43893,17.89739 5.48221,24.90118 -3.90227,3.43491 -9.05092,4.59988 -13.42887,3.03851 z"
       id="path23" />
    <path
       style="fill:#e88d50;fill-opacity:1;stroke-width:0.0682515"
       d="m 193.69297,271.37037 c -2.708,-0.44217 -5.03702,-1.68765 -7.00463,-3.7458 -2.35645,-2.46489 -3.79804,-5.54703 -4.33037,-9.25839 -0.10704,-0.74632 -0.1062,-3.17883 0.001,-4.06096 0.23922,-1.96099 0.49055,-2.9758 0.99732,-4.02685 2.22723,-4.61934 7.41114,-7.81807 12.66171,-7.8129 6.69927,0.007 12.14699,5.36558 13.18057,12.9659 0.11277,0.82927 0.11449,3.12682 0.003,3.92446 -0.44819,3.20454 -1.69161,5.80951 -3.76382,7.88525 -1.98528,1.98866 -4.61117,3.40787 -7.39539,3.99697 -0.70664,0.14952 -1.04782,0.17947 -2.2973,0.20172 -1.04524,0.0186 -1.63572,-0.001 -2.05243,-0.0694 z"
       id="path24" />
    <path
       style="fill:#e88d50;fill-opacity:1;stroke-width:0.0682515"
       d="m 194.58512,271.80592 c -2.93574,-0.19615 -5.5636,-1.38563 -7.78221,-3.52254 -3.91534,-3.77117 -5.75798,-9.7941 -4.66275,-15.24082 0.7106,-3.53387 2.64688,-6.47106 5.55874,-8.43218 0.82686,-0.55689 2.47126,-1.34042 3.57469,-1.70329 4.60624,-1.51477 8.89495,-0.91897 12.40214,1.72296 2.75262,2.07352 4.89777,5.60224 5.67418,9.33391 0.28558,1.37261 0.35011,2.0358 0.34865,3.5832 -0.002,1.61677 -0.089,2.37618 -0.43881,3.80864 -0.85155,3.48722 -3.00776,6.43983 -6.04063,8.27178 -2.55848,1.54539 -5.81398,2.36675 -8.634,2.17834 z m 2.67192,-0.37397 c 1.50705,-0.2102 2.84201,-0.62898 4.32387,-1.35641 3.17795,-1.56004 5.59097,-4.11404 6.77394,-7.16972 0.44875,-1.15916 0.7402,-2.30529 0.91138,-3.58412 0.11,-0.82177 0.11152,-2.974 0.003,-3.82208 -0.61268,-4.77468 -3.02245,-8.83773 -6.61653,-11.15596 -0.68152,-0.43959 -2.03077,-1.081 -2.80068,-1.3314 -1.62044,-0.52701 -3.52749,-0.72925 -5.16421,-0.54767 -4.05331,0.4497 -7.75846,2.53268 -10.11186,5.68475 -1.57232,2.10591 -2.11999,3.77595 -2.34922,7.16361 -0.42244,6.24292 2.87486,12.46281 7.95982,15.01508 1.03552,0.51975 2.56679,0.99077 3.68224,1.13266 0.80218,0.10204 2.55769,0.0872 3.38856,-0.0287 z"
       id="path25" />
    <path
       style="fill:#e88d50;fill-opacity:1;stroke-width:0.0170629"
       d="m 182.4286,260.67947 c -0.0164,-0.0265 -0.17427,-0.69096 -0.23823,-1.00251 -0.25545,-1.24413 -0.36608,-2.433 -0.34585,-3.71664 0.016,-1.01656 0.10109,-1.86717 0.27763,-2.77605 0.48912,-2.51814 1.54466,-4.67341 3.17385,-6.48057 0.85226,-0.94535 1.9628,-1.85475 2.95879,-2.42287 0.7147,-0.40768 1.76234,-0.8999 2.53384,-1.19049 1.25147,-0.47137 2.71468,-0.80907 4.04391,-0.93328 3.46818,-0.3241 6.7032,0.67485 9.34192,2.88472 0.88258,0.73914 1.77751,1.7264 2.4888,2.74558 l 0.0716,0.10254 -0.005,0.26129 -0.005,0.26129 -0.14381,-0.21027 c -1.01701,-1.48689 -2.24071,-2.72183 -3.65268,-3.68621 -0.70323,-0.48032 -1.88085,-1.07238 -2.8495,-1.43263 -0.73242,-0.2724 -1.85433,-0.51883 -2.81537,-0.61841 -0.67698,-0.0701 -1.62147,-0.0906 -2.15846,-0.0467 -2.52288,0.20608 -4.98699,1.06325 -7.07875,2.46243 -1.60438,1.07317 -2.94852,2.42862 -3.99058,4.02416 -1.14527,1.75357 -1.60238,3.35401 -1.8129,6.3474 -0.11999,1.70615 0.0373,3.47644 0.45814,5.15725 l 0.0716,0.28581 h -0.15733 c -0.0865,0 -0.16172,-0.007 -0.16709,-0.0158 z"
       id="path27" />
    <path
       style="fill:#e88d50;fill-opacity:1;stroke-width:0.0170629"
       d="m 182.42915,260.68036 c -0.0174,-0.0282 -0.16143,-0.63089 -0.23047,-0.96449 -0.26357,-1.2737 -0.37451,-2.45036 -0.35408,-3.75555 0.0101,-0.64524 0.0353,-1.05998 0.0974,-1.60392 0.33796,-2.96021 1.46902,-5.55324 3.32377,-7.61995 0.26274,-0.29277 0.76717,-0.79487 1.05242,-1.04756 0.4468,-0.39581 1.09161,-0.88472 1.55679,-1.1804 0.88098,-0.55997 2.41787,-1.27379 3.50235,-1.6267 2.23485,-0.72726 4.47704,-0.95134 6.56068,-0.65568 1.82009,0.25826 3.57826,0.93874 5.13892,1.98893 1.34094,0.90234 2.48458,2.03258 3.51782,3.47659 l 0.13918,0.1945 -7.6e-4,0.2662 c -6.9e-4,0.24107 -0.003,0.26297 -0.0265,0.23206 -0.0142,-0.0188 -0.11094,-0.15697 -0.21508,-0.30713 -0.49851,-0.71877 -1.0244,-1.3468 -1.6504,-1.97097 -0.80013,-0.79779 -1.70908,-1.50652 -2.54019,-1.98064 -0.63521,-0.36237 -1.55612,-0.79502 -2.18747,-1.02771 -1.53358,-0.56519 -3.64516,-0.82309 -5.32355,-0.65018 -4.07464,0.41977 -7.83353,2.514 -10.21146,5.68922 -1.5216,2.03179 -2.0824,3.66427 -2.32996,6.7825 -0.0186,0.23461 -0.0431,0.66268 -0.0543,0.95125 -0.0396,1.01693 0.0385,2.18349 0.21751,3.24622 0.0701,0.41639 0.2224,1.13114 0.30446,1.42902 l 0.0411,0.1493 h -0.15948 c -0.0877,0 -0.16362,-0.007 -0.16869,-0.0149 z"
       id="path28" />
    <path
       style="fill:#e88d50;fill-opacity:1;stroke-width:0.0170629"
       d="m 182.42989,260.68155 c -0.0363,-0.0587 -0.24061,-0.97107 -0.3332,-1.48782 -0.25076,-1.39959 -0.32253,-3.01694 -0.19647,-4.42782 0.3222,-3.60597 1.7797,-6.65765 4.2729,-8.94649 0.42517,-0.39032 1.05158,-0.88219 1.5186,-1.19244 0.98955,-0.65737 2.65141,-1.4304 3.89525,-1.8119 2.22495,-0.68242 4.31974,-0.87679 6.35101,-0.58929 2.78282,0.39386 5.3767,1.76289 7.36908,3.88933 0.47356,0.50542 1.01848,1.17575 1.34625,1.65608 l 0.0815,0.11945 -0.005,0.26393 -0.005,0.26394 -0.10973,-0.1621 c -1.03489,-1.52876 -2.34384,-2.84348 -3.7806,-3.79727 -0.37159,-0.24668 -0.65114,-0.40681 -1.16028,-0.66463 -1.20412,-0.60974 -2.01429,-0.9012 -3.1481,-1.13252 -1.4441,-0.29463 -2.87886,-0.34342 -4.28278,-0.14565 -2.49867,0.35199 -4.8659,1.32763 -6.86782,2.83053 -0.56273,0.42247 -0.93273,0.743 -1.46507,1.26921 -1.39161,1.37559 -2.45223,2.98307 -2.9793,4.51543 -0.36955,1.07443 -0.60053,2.4502 -0.71615,4.26572 -0.0863,1.35561 0.0113,2.80353 0.28146,4.17418 0.0662,0.33598 0.17301,0.80662 0.22692,1.00014 l 0.0345,0.12371 h -0.16 c -0.088,0 -0.16382,-0.006 -0.16848,-0.0137 z"
       id="path29" />
    <path
       style="fill:#e88d50;fill-opacity:1;stroke-width:0.0170629"
       d="m 182.78825,260.68162 c -0.0157,-0.0255 -0.16225,-0.64201 -0.22381,-0.94188 -0.16524,-0.80497 -0.2651,-1.56807 -0.31596,-2.41439 -0.0339,-0.5637 -0.0217,-1.62051 0.0258,-2.2523 0.12978,-1.7227 0.41727,-3.30471 0.75349,-4.14629 0.18018,-0.45099 0.4571,-1.00933 0.75319,-1.51859 1.01888,-1.75247 2.50206,-3.31085 4.29142,-4.50898 1.95073,-1.30619 4.21225,-2.13808 6.47858,-2.38312 0.88771,-0.096 1.82952,-0.10188 2.6874,-0.0168 3.72319,0.36912 7.06886,2.42629 9.30538,5.72164 l 0.19012,0.28012 v 6.09713 6.09714 h -11.96861 c -6.58273,0 -11.9724,-0.006 -11.97704,-0.0136 z"
       id="path30" />
    <path
       style="fill:#e88d50;fill-opacity:1;stroke-width:0.0170629"
       d="m 182.41966,260.65358 c -0.059,-0.15524 -0.25409,-1.052 -0.34167,-1.57076 -0.1808,-1.07088 -0.24991,-1.98987 -0.23353,-3.10544 0.0125,-0.84978 0.0602,-1.45466 0.17339,-2.19922 0.55488,-3.64898 2.34722,-6.69488 5.17904,-8.80124 0.58738,-0.43689 0.99445,-0.68315 1.80014,-1.08896 1.56355,-0.78753 2.88774,-1.24348 4.47901,-1.54223 1.35973,-0.25527 2.76608,-0.31445 4.06949,-0.17124 2.59059,0.28463 5.0244,1.39677 7.02138,3.20842 0.69519,0.63067 1.40426,1.43494 2.01129,2.28131 l 0.15656,0.21828 -0.005,0.26801 -0.005,0.26801 -0.16683,-0.24298 c -1.02668,-1.49527 -2.30956,-2.77567 -3.71871,-3.71152 -0.85095,-0.56514 -2.20421,-1.21363 -3.13583,-1.50272 -0.81527,-0.25299 -1.65788,-0.416 -2.67887,-0.51826 -0.43802,-0.0439 -1.78263,-0.0438 -2.18405,1.6e-4 -1.2234,0.13388 -2.21686,0.3509 -3.33529,0.72858 -1.82648,0.61677 -3.52878,1.59623 -4.98287,2.86702 -0.30529,0.26681 -1.04886,1.01362 -1.30759,1.31329 -0.6551,0.75878 -1.22196,1.56263 -1.63527,2.31898 -0.78253,1.43199 -1.14375,2.88114 -1.33961,5.37439 -0.14531,1.84967 0.0105,3.66869 0.46738,5.45785 l 0.049,0.19196 h -0.16067 c -0.15468,0 -0.16125,-0.002 -0.17651,-0.0417 z"
       id="path31" />
    <path
       style="fill:#e88d50;fill-opacity:1;stroke-width:0.00426572"
       d="m 183.05061,250.82772 c 0,-0.006 0.0995,-0.25344 0.13972,-0.34672 0.33401,-0.77538 0.78128,-1.52379 1.41105,-2.36108 0.26797,-0.35627 0.60298,-0.75955 0.84869,-1.02164 0.20324,-0.21679 0.72242,-0.73479 0.88941,-0.88738 0.19757,-0.18054 0.44411,-0.39156 0.66684,-0.57077 0.0876,-0.0705 0.10365,-0.0818 0.11624,-0.0818 0.008,0 0.0146,7.6e-4 0.0146,0.002 0,9.3e-4 -0.0225,0.0197 -0.0501,0.0416 -1.02961,0.81937 -1.93077,1.76502 -2.67213,2.80407 -0.52567,0.73674 -0.98428,1.54699 -1.32668,2.34391 -0.0338,0.0786 -0.0376,0.0866 -0.0376,0.0781 z"
       id="path32" />
  </g>
</svg>
